solid CuttingTool_Alternative6
   facet normal 0.000000e+000 -1.000000e+000 0.000000e+000
      outer loop
         vertex 6.190091e-001 0.000000e+000 1.500000e+001
         vertex 1.561901e+001 0.000000e+000 1.500000e+001
         vertex 6.190091e-001 0.000000e+000 9.600000e+001
      endloop
   endfacet
   facet normal 0.000000e+000 -1.000000e+000 0.000000e+000
      outer loop
         vertex 6.190091e-001 0.000000e+000 9.600000e+001
         vertex 1.561901e+001 0.000000e+000 1.500000e+001
         vertex 1.561901e+001 0.000000e+000 1.027167e+002
      endloop
   endfacet
   facet normal 0.000000e+000 -1.000000e+000 0.000000e+000
      outer loop
         vertex 6.190091e-001 0.000000e+000 9.600000e+001
         vertex 1.561901e+001 0.000000e+000 1.027167e+002
         vertex 6.437394e+000 0.000000e+000 1.027167e+002
      endloop
   endfacet
   facet normal 0.000000e+000 1.000000e+000 0.000000e+000
      outer loop
         vertex 6.190091e-001 2.000000e+001 1.500000e+001
         vertex 6.190091e-001 2.000000e+001 9.000000e+001
         vertex 1.561901e+001 2.000000e+001 1.500000e+001
      endloop
   endfacet
   facet normal 0.000000e+000 1.000000e+000 0.000000e+000
      outer loop
         vertex 1.561901e+001 2.000000e+001 1.500000e+001
         vertex 6.190091e-001 2.000000e+001 9.000000e+001
         vertex 1.561901e+001 2.000000e+001 9.000000e+001
      endloop
   endfacet
   facet normal -1.000000e+000 0.000000e+000 0.000000e+000
      outer loop
         vertex 6.190091e-001 2.000000e+001 1.500000e+001
         vertex 6.190091e-001 0.000000e+000 1.500000e+001
         vertex 6.190091e-001 2.000000e+001 9.000000e+001
      endloop
   endfacet
   facet normal -1.000000e+000 0.000000e+000 0.000000e+000
      outer loop
         vertex 6.190091e-001 2.000000e+001 9.000000e+001
         vertex 6.190091e-001 0.000000e+000 1.500000e+001
         vertex 6.190091e-001 0.000000e+000 9.600000e+001
      endloop
   endfacet
   facet normal -1.000000e+000 0.000000e+000 0.000000e+000
      outer loop
         vertex 6.190091e-001 2.000000e+001 9.000000e+001
         vertex 6.190091e-001 0.000000e+000 9.600000e+001
         vertex 6.190091e-001 2.116298e+001 9.000000e+001
      endloop
   endfacet
   facet normal 1.000000e+000 0.000000e+000 0.000000e+000
      outer loop
         vertex 1.561901e+001 5.045225e+000 1.114552e+002
         vertex 1.561901e+001 0.000000e+000 1.027167e+002
         vertex 1.561901e+001 5.067838e+000 1.114161e+002
      endloop
   endfacet
   facet normal 1.000000e+000 0.000000e+000 0.000000e+000
      outer loop
         vertex 1.561901e+001 5.067838e+000 1.114161e+002
         vertex 1.561901e+001 0.000000e+000 1.027167e+002
         vertex 1.561901e+001 0.000000e+000 1.500000e+001
      endloop
   endfacet
   facet normal 1.000000e+000 0.000000e+000 0.000000e+000
      outer loop
         vertex 1.561901e+001 2.116298e+001 9.000000e+001
         vertex 1.561901e+001 2.282257e+001 1.216668e+002
         vertex 1.561901e+001 2.000000e+001 9.000000e+001
      endloop
   endfacet
   facet normal 1.000000e+000 0.000000e+000 0.000000e+000
      outer loop
         vertex 1.561901e+001 2.000000e+001 9.000000e+001
         vertex 1.561901e+001 2.282257e+001 1.216668e+002
         vertex 1.561901e+001 5.067838e+000 1.114161e+002
      endloop
   endfacet
   facet normal 1.000000e+000 0.000000e+000 0.000000e+000
      outer loop
         vertex 1.561901e+001 2.000000e+001 9.000000e+001
         vertex 1.561901e+001 5.067838e+000 1.114161e+002
         vertex 1.561901e+001 2.000000e+001 1.500000e+001
      endloop
   endfacet
   facet normal 1.000000e+000 0.000000e+000 0.000000e+000
      outer loop
         vertex 1.561901e+001 2.000000e+001 1.500000e+001
         vertex 1.561901e+001 5.067838e+000 1.114161e+002
         vertex 1.561901e+001 0.000000e+000 1.500000e+001
      endloop
   endfacet
   facet normal 0.000000e+000 9.986295e-001 -5.233596e-002
      outer loop
         vertex 9.984586e+000 2.282257e+001 1.216668e+002
         vertex 1.561901e+001 2.282257e+001 1.216668e+002
         vertex 1.561901e+001 2.116298e+001 9.000000e+001
      endloop
   endfacet
   facet normal 0.000000e+000 9.986295e-001 -5.233596e-002
      outer loop
         vertex 1.561901e+001 2.116298e+001 9.000000e+001
         vertex 6.190091e-001 2.116298e+001 9.000000e+001
         vertex 4.597141e+000 2.140013e+001 9.452506e+001
      endloop
   endfacet
   facet normal 0.000000e+000 9.986295e-001 -5.233596e-002
      outer loop
         vertex 8.922184e+000 2.293681e+001 1.238467e+002
         vertex 9.984586e+000 2.282257e+001 1.216668e+002
         vertex 4.581004e+000 2.141169e+001 9.474563e+001
      endloop
   endfacet
   facet normal 0.000000e+000 9.986295e-001 -5.233596e-002
      outer loop
         vertex 4.581004e+000 2.141169e+001 9.474563e+001
         vertex 9.984586e+000 2.282257e+001 1.216668e+002
         vertex 1.561901e+001 2.116298e+001 9.000000e+001
      endloop
   endfacet
   facet normal 0.000000e+000 9.986295e-001 -5.233596e-002
      outer loop
         vertex 4.581004e+000 2.141169e+001 9.474563e+001
         vertex 1.561901e+001 2.116298e+001 9.000000e+001
         vertex 4.405868e+000 2.140973e+001 9.470822e+001
      endloop
   endfacet
   facet normal 0.000000e+000 9.986295e-001 -5.233596e-002
      outer loop
         vertex 4.405868e+000 2.140973e+001 9.470822e+001
         vertex 1.561901e+001 2.116298e+001 9.000000e+001
         vertex 4.597141e+000 2.140013e+001 9.452506e+001
      endloop
   endfacet
   facet normal 0.000000e+000 9.986295e-001 -5.233596e-002
      outer loop
         vertex 4.581004e+000 2.141169e+001 9.474563e+001
         vertex 0.000000e+000 2.336699e+001 1.320549e+002
         vertex 2.549462e+000 2.329300e+001 1.306432e+002
      endloop
   endfacet
   facet normal 0.000000e+000 9.986295e-001 -5.233596e-002
      outer loop
         vertex 2.549462e+000 2.329300e+001 1.306432e+002
         vertex 5.026413e+000 2.319250e+001 1.287255e+002
         vertex 4.581004e+000 2.141169e+001 9.474563e+001
      endloop
   endfacet
   facet normal 0.000000e+000 9.986295e-001 -5.233596e-002
      outer loop
         vertex 4.581004e+000 2.141169e+001 9.474563e+001
         vertex 5.026413e+000 2.319250e+001 1.287255e+002
         vertex 7.168614e+000 2.307277e+001 1.264408e+002
      endloop
   endfacet
   facet normal 0.000000e+000 9.986295e-001 -5.233596e-002
      outer loop
         vertex 4.581004e+000 2.141169e+001 9.474563e+001
         vertex 7.168614e+000 2.307277e+001 1.264408e+002
         vertex 8.922184e+000 2.293681e+001 1.238467e+002
      endloop
   endfacet
   facet normal 0.000000e+000 -8.660254e-001 5.000000e-001
      outer loop
         vertex 6.437394e+000 0.000000e+000 1.027167e+002
         vertex 1.561901e+001 0.000000e+000 1.027167e+002
         vertex 6.273173e+000 7.325411e-002 1.028435e+002
      endloop
   endfacet
   facet normal 0.000000e+000 -8.660254e-001 5.000000e-001
      outer loop
         vertex 6.273173e+000 7.325411e-002 1.028435e+002
         vertex 1.561901e+001 0.000000e+000 1.027167e+002
         vertex 1.561901e+001 5.045225e+000 1.114552e+002
      endloop
   endfacet
   facet normal 0.000000e+000 -8.660254e-001 5.000000e-001
      outer loop
         vertex 6.273173e+000 7.325411e-002 1.028435e+002
         vertex 1.561901e+001 5.045225e+000 1.114552e+002
         vertex 4.657746e+000 5.045225e+000 1.114552e+002
      endloop
   endfacet
   facet normal 0.000000e+000 0.000000e+000 -1.000000e+000
      outer loop
         vertex 6.190091e-001 2.000000e+001 9.000000e+001
         vertex 6.190091e-001 2.116298e+001 9.000000e+001
         vertex 1.561901e+001 2.000000e+001 9.000000e+001
      endloop
   endfacet
   facet normal 0.000000e+000 0.000000e+000 -1.000000e+000
      outer loop
         vertex 1.561901e+001 2.000000e+001 9.000000e+001
         vertex 6.190091e-001 2.116298e+001 9.000000e+001
         vertex 1.561901e+001 2.116298e+001 9.000000e+001
      endloop
   endfacet
   facet normal -5.168336e-017 8.660254e-001 5.000000e-001
      outer loop
         vertex 1.561901e+001 5.067838e+000 1.114161e+002
         vertex 4.659510e+000 5.067838e+000 1.114161e+002
         vertex 1.561901e+001 5.045225e+000 1.114552e+002
      endloop
   endfacet
   facet normal -5.168336e-017 8.660254e-001 5.000000e-001
      outer loop
         vertex 1.561901e+001 5.045225e+000 1.114552e+002
         vertex 4.659510e+000 5.067838e+000 1.114161e+002
         vertex 4.657746e+000 5.045225e+000 1.114552e+002
      endloop
   endfacet
   facet normal -5.361072e-016 -5.000000e-001 8.660254e-001
      outer loop
         vertex 9.320431e+000 1.399953e+001 1.165728e+002
         vertex 8.858521e+000 1.274283e+001 1.158472e+002
         vertex 1.561901e+001 5.067838e+000 1.114161e+002
      endloop
   endfacet
   facet normal -5.361072e-016 -5.000000e-001 8.660254e-001
      outer loop
         vertex 1.561901e+001 5.067838e+000 1.114161e+002
         vertex 8.858521e+000 1.274283e+001 1.158472e+002
         vertex 8.010648e+000 1.146009e+001 1.151067e+002
      endloop
   endfacet
   facet normal -5.361072e-016 -5.000000e-001 8.660254e-001
      outer loop
         vertex 4.249451e+000 7.219278e+000 1.126582e+002
         vertex 4.659510e+000 5.067838e+000 1.114161e+002
         vertex 6.284325e+000 9.182023e+000 1.137914e+002
      endloop
   endfacet
   facet normal -5.361072e-016 -5.000000e-001 8.660254e-001
      outer loop
         vertex 6.284325e+000 9.182023e+000 1.137914e+002
         vertex 4.659510e+000 5.067838e+000 1.114161e+002
         vertex 1.561901e+001 5.067838e+000 1.114161e+002
      endloop
   endfacet
   facet normal -5.361072e-016 -5.000000e-001 8.660254e-001
      outer loop
         vertex 6.284325e+000 9.182023e+000 1.137914e+002
         vertex 1.561901e+001 5.067838e+000 1.114161e+002
         vertex 6.892852e+000 9.768982e+000 1.141303e+002
      endloop
   endfacet
   facet normal -5.361072e-016 -5.000000e-001 8.660254e-001
      outer loop
         vertex 6.892852e+000 9.768982e+000 1.141303e+002
         vertex 1.561901e+001 5.067838e+000 1.114161e+002
         vertex 8.010648e+000 1.146009e+001 1.151067e+002
      endloop
   endfacet
   facet normal -5.361072e-016 -5.000000e-001 8.660254e-001
      outer loop
         vertex 1.020284e+001 2.170950e+001 1.210241e+002
         vertex 1.561901e+001 2.282257e+001 1.216668e+002
         vertex 1.009534e+001 2.225771e+001 1.213407e+002
      endloop
   endfacet
   facet normal -5.361072e-016 -5.000000e-001 8.660254e-001
      outer loop
         vertex 1.009534e+001 2.225771e+001 1.213407e+002
         vertex 1.561901e+001 2.282257e+001 1.216668e+002
         vertex 9.984586e+000 2.282257e+001 1.216668e+002
      endloop
   endfacet
   facet normal -5.361072e-016 -5.000000e-001 8.660254e-001
      outer loop
         vertex 1.019468e+001 1.679068e+001 1.181843e+002
         vertex 1.005867e+001 1.600801e+001 1.177324e+002
         vertex 1.561901e+001 5.067838e+000 1.114161e+002
      endloop
   endfacet
   facet normal -5.361072e-016 -5.000000e-001 8.660254e-001
      outer loop
         vertex 1.561901e+001 5.067838e+000 1.114161e+002
         vertex 1.005867e+001 1.600801e+001 1.177324e+002
         vertex 9.804780e+000 1.531727e+001 1.173336e+002
      endloop
   endfacet
   facet normal -5.361072e-016 -5.000000e-001 8.660254e-001
      outer loop
         vertex 1.561901e+001 5.067838e+000 1.114161e+002
         vertex 9.804780e+000 1.531727e+001 1.173336e+002
         vertex 9.320431e+000 1.399953e+001 1.165728e+002
      endloop
   endfacet
   facet normal -5.361072e-016 -5.000000e-001 8.660254e-001
      outer loop
         vertex 1.043970e+001 1.941870e+001 1.197016e+002
         vertex 1.040431e+001 1.871501e+001 1.192953e+002
         vertex 1.561901e+001 2.282257e+001 1.216668e+002
      endloop
   endfacet
   facet normal -5.361072e-016 -5.000000e-001 8.660254e-001
      outer loop
         vertex 1.561901e+001 2.282257e+001 1.216668e+002
         vertex 1.040431e+001 1.871501e+001 1.192953e+002
         vertex 1.035351e+001 1.770461e+001 1.187119e+002
      endloop
   endfacet
   facet normal -5.361072e-016 -5.000000e-001 8.660254e-001
      outer loop
         vertex 1.561901e+001 2.282257e+001 1.216668e+002
         vertex 1.035351e+001 1.770461e+001 1.187119e+002
         vertex 1.561901e+001 5.067838e+000 1.114161e+002
      endloop
   endfacet
   facet normal -5.361072e-016 -5.000000e-001 8.660254e-001
      outer loop
         vertex 1.561901e+001 5.067838e+000 1.114161e+002
         vertex 1.035351e+001 1.770461e+001 1.187119e+002
         vertex 1.034556e+001 1.765886e+001 1.186855e+002
      endloop
   endfacet
   facet normal -5.361072e-016 -5.000000e-001 8.660254e-001
      outer loop
         vertex 1.561901e+001 5.067838e+000 1.114161e+002
         vertex 1.034556e+001 1.765886e+001 1.186855e+002
         vertex 1.019468e+001 1.679068e+001 1.181843e+002
      endloop
   endfacet
   facet normal -5.361072e-016 -5.000000e-001 8.660254e-001
      outer loop
         vertex 1.020284e+001 2.170950e+001 1.210241e+002
         vertex 1.030251e+001 2.120121e+001 1.207307e+002
         vertex 1.561901e+001 2.282257e+001 1.216668e+002
      endloop
   endfacet
   facet normal -5.361072e-016 -5.000000e-001 8.660254e-001
      outer loop
         vertex 1.561901e+001 2.282257e+001 1.216668e+002
         vertex 1.030251e+001 2.120121e+001 1.207307e+002
         vertex 1.031626e+001 2.113108e+001 1.206902e+002
      endloop
   endfacet
   facet normal -5.361072e-016 -5.000000e-001 8.660254e-001
      outer loop
         vertex 1.561901e+001 2.282257e+001 1.216668e+002
         vertex 1.031626e+001 2.113108e+001 1.206902e+002
         vertex 1.034746e+001 2.069830e+001 1.204403e+002
      endloop
   endfacet
   facet normal -5.361072e-016 -5.000000e-001 8.660254e-001
      outer loop
         vertex 1.034746e+001 2.069830e+001 1.204403e+002
         vertex 1.038720e+001 2.014691e+001 1.201220e+002
         vertex 1.561901e+001 2.282257e+001 1.216668e+002
      endloop
   endfacet
   facet normal -5.361072e-016 -5.000000e-001 8.660254e-001
      outer loop
         vertex 1.561901e+001 2.282257e+001 1.216668e+002
         vertex 1.038720e+001 2.014691e+001 1.201220e+002
         vertex 1.042877e+001 1.957028e+001 1.197891e+002
      endloop
   endfacet
   facet normal -5.361072e-016 -5.000000e-001 8.660254e-001
      outer loop
         vertex 1.561901e+001 2.282257e+001 1.216668e+002
         vertex 1.042877e+001 1.957028e+001 1.197891e+002
         vertex 1.043970e+001 1.941870e+001 1.197016e+002
      endloop
   endfacet
   facet normal 8.906258e-001 5.091632e-003 4.547085e-001
      outer loop
         vertex 9.984586e+000 2.282257e+001 1.216668e+002
         vertex 8.922184e+000 2.293681e+001 1.238467e+002
         vertex 8.944315e+000 2.182571e+001 1.238020e+002
      endloop
   endfacet
   facet normal 6.509591e-001 -7.526577e-001 9.878589e-002
      outer loop
         vertex 3.941010e+000 7.077096e+000 1.154609e+002
         vertex 5.858943e+000 8.752088e+000 1.160159e+002
         vertex 3.796899e+000 7.010667e+000 1.167703e+002
      endloop
   endfacet
   facet normal 6.737399e-001 -7.232562e-001 1.515757e-001
      outer loop
         vertex 3.796899e+000 7.010667e+000 1.167703e+002
         vertex 5.858943e+000 8.752088e+000 1.160159e+002
         vertex 5.307034e+000 8.785439e+000 1.185806e+002
      endloop
   endfacet
   facet normal 6.355004e-001 -7.480141e-001 1.913480e-001
      outer loop
         vertex 3.796899e+000 7.010667e+000 1.167703e+002
         vertex 5.307034e+000 8.785439e+000 1.185806e+002
         vertex 3.573733e+000 7.325542e+000 1.183548e+002
      endloop
   endfacet
   facet normal 6.263758e-001 -7.350307e-001 2.595826e-001
      outer loop
         vertex 3.573733e+000 7.325542e+000 1.183548e+002
         vertex 5.307034e+000 8.785439e+000 1.185806e+002
         vertex 3.230055e+000 7.810453e+000 1.207949e+002
      endloop
   endfacet
   facet normal 6.454071e-001 -7.000756e-001 3.055223e-001
      outer loop
         vertex 3.230055e+000 7.810453e+000 1.207949e+002
         vertex 5.307034e+000 8.785439e+000 1.185806e+002
         vertex 4.760988e+000 9.311879e+000 1.210922e+002
      endloop
   endfacet
   facet normal 6.084841e-001 -7.128768e-001 3.486455e-001
      outer loop
         vertex 3.230055e+000 7.810453e+000 1.207949e+002
         vertex 4.760988e+000 9.311879e+000 1.210922e+002
         vertex 3.167376e+000 7.980976e+000 1.211528e+002
      endloop
   endfacet
   facet normal 6.267974e-001 -6.719576e-001 3.944592e-001
      outer loop
         vertex 3.167376e+000 7.980976e+000 1.211528e+002
         vertex 4.760988e+000 9.311879e+000 1.210922e+002
         vertex 4.240321e+000 1.031259e+001 1.234609e+002
      endloop
   endfacet
   facet normal 5.929399e-001 -6.746111e-001 4.396842e-001
      outer loop
         vertex 3.167376e+000 7.980976e+000 1.211528e+002
         vertex 4.240321e+000 1.031259e+001 1.234609e+002
         vertex 2.716575e+000 9.207411e+000 1.237269e+002
      endloop
   endfacet
   facet normal 5.814116e-001 -6.458330e-001 4.948336e-001
      outer loop
         vertex 2.716575e+000 9.207411e+000 1.237269e+002
         vertex 4.240321e+000 1.031259e+001 1.234609e+002
         vertex 2.583198e+000 9.570270e+000 1.244885e+002
      endloop
   endfacet
   facet normal 5.992723e-001 -6.029092e-001 5.266625e-001
      outer loop
         vertex 2.583198e+000 9.570270e+000 1.244885e+002
         vertex 4.240321e+000 1.031259e+001 1.234609e+002
         vertex 3.763638e+000 1.175181e+001 1.256020e+002
      endloop
   endfacet
   facet normal 5.662752e-001 -5.947782e-001 5.705885e-001
      outer loop
         vertex 2.583198e+000 9.570270e+000 1.244885e+002
         vertex 3.763638e+000 1.175181e+001 1.256020e+002
         vertex 2.249598e+000 1.083794e+001 1.260112e+002
      endloop
   endfacet
   facet normal 5.547218e-001 -5.506749e-001 6.237315e-001
      outer loop
         vertex 2.249598e+000 1.083794e+001 1.260112e+002
         vertex 3.763638e+000 1.175181e+001 1.256020e+002
         vertex 1.895446e+000 1.218370e+001 1.276277e+002
      endloop
   endfacet
   facet normal 5.725593e-001 -5.034915e-001 6.470488e-001
      outer loop
         vertex 1.895446e+000 1.218370e+001 1.276277e+002
         vertex 3.763638e+000 1.175181e+001 1.256020e+002
         vertex 3.347976e+000 1.357812e+001 1.274392e+002
      endloop
   endfacet
   facet normal 5.386468e-001 -4.861329e-001 6.881383e-001
      outer loop
         vertex 1.895446e+000 1.218370e+001 1.276277e+002
         vertex 3.347976e+000 1.357812e+001 1.274392e+002
         vertex 1.774652e+000 1.276546e+001 1.280488e+002
      endloop
   endfacet
   facet normal 5.584995e-001 -4.271223e-001 7.110871e-001
      outer loop
         vertex 1.774652e+000 1.276546e+001 1.280488e+002
         vertex 3.347976e+000 1.357812e+001 1.274392e+002
         vertex 3.008189e+000 1.572623e+001 1.289066e+002
      endloop
   endfacet
   facet normal 5.243477e-001 -4.023714e-001 7.504377e-001
      outer loop
         vertex 1.774652e+000 1.276546e+001 1.280488e+002
         vertex 3.008189e+000 1.572623e+001 1.289066e+002
         vertex 1.296997e+000 1.506594e+001 1.297139e+002
      endloop
   endfacet
   facet normal 5.131501e-001 -3.549532e-001 7.814635e-001
      outer loop
         vertex 1.296997e+000 1.506594e+001 1.297139e+002
         vertex 3.008189e+000 1.572623e+001 1.289066e+002
         vertex 1.208389e+000 1.549269e+001 1.300228e+002
      endloop
   endfacet
   facet normal 5.383098e-001 -3.035913e-001 7.861647e-001
      outer loop
         vertex 1.208389e+000 1.549269e+001 1.300228e+002
         vertex 3.008189e+000 1.572623e+001 1.289066e+002
         vertex 2.756421e+000 1.811938e+001 1.299520e+002
      endloop
   endfacet
   facet normal 5.023941e-001 -2.711837e-001 8.210113e-001
      outer loop
         vertex 1.208389e+000 1.549269e+001 1.300228e+002
         vertex 2.756421e+000 1.811938e+001 1.299520e+002
         vertex 8.401554e-001 1.766529e+001 1.308829e+002
      endloop
   endfacet
   facet normal 4.912715e-001 -2.067412e-001 8.461149e-001
      outer loop
         vertex 8.401554e-001 1.766529e+001 1.308829e+002
         vertex 2.756421e+000 1.811938e+001 1.299520e+002
         vertex 5.635750e-001 1.929714e+001 1.315289e+002
      endloop
   endfacet
   facet normal 5.206632e-001 -1.556013e-001 8.394629e-001
      outer loop
         vertex 5.635750e-001 1.929714e+001 1.315289e+002
         vertex 2.756421e+000 1.811938e+001 1.299520e+002
         vertex 2.601668e+000 2.067204e+001 1.305378e+002
      endloop
   endfacet
   facet normal 4.809935e-001 -1.164501e-001 8.689560e-001
      outer loop
         vertex 5.635750e-001 1.929714e+001 1.315289e+002
         vertex 2.601668e+000 2.067204e+001 1.305378e+002
         vertex 4.061507e-001 2.043398e+001 1.316758e+002
      endloop
   endfacet
   facet normal 5.154744e-001 -4.899718e-002 8.555030e-001
      outer loop
         vertex 4.061507e-001 2.043398e+001 1.316758e+002
         vertex 2.601668e+000 2.067204e+001 1.305378e+002
         vertex 2.549462e+000 2.329300e+001 1.306432e+002
      endloop
   endfacet
   facet normal 4.717169e-001 -3.367181e-003 8.817436e-001
      outer loop
         vertex 4.061507e-001 2.043398e+001 1.316758e+002
         vertex 2.549462e+000 2.329300e+001 1.306432e+002
         vertex 0.000000e+000 2.336699e+001 1.320549e+002
      endloop
   endfacet
   facet normal 9.109157e-001 -6.389611e-003 4.125431e-001
      outer loop
         vertex 9.984586e+000 2.282257e+001 1.216668e+002
         vertex 8.944315e+000 2.182571e+001 1.238020e+002
         vertex 1.009534e+001 2.225771e+001 1.213407e+002
      endloop
   endfacet
   facet normal 8.947661e-001 -4.154545e-002 4.445983e-001
      outer loop
         vertex 1.009534e+001 2.225771e+001 1.213407e+002
         vertex 8.944315e+000 2.182571e+001 1.238020e+002
         vertex 9.009919e+000 2.074356e+001 1.235537e+002
      endloop
   endfacet
   facet normal 9.164478e-001 -4.352653e-002 3.977800e-001
      outer loop
         vertex 1.009534e+001 2.225771e+001 1.213407e+002
         vertex 9.009919e+000 2.074356e+001 1.235537e+002
         vertex 1.020284e+001 2.170950e+001 1.210241e+002
      endloop
   endfacet
   facet normal 8.997964e-001 -8.630601e-002 4.276887e-001
      outer loop
         vertex 1.020284e+001 2.170950e+001 1.210241e+002
         vertex 9.009919e+000 2.074356e+001 1.235537e+002
         vertex 9.116652e+000 1.972904e+001 1.231105e+002
      endloop
   endfacet
   facet normal 9.216688e-001 -7.856487e-002 3.799397e-001
      outer loop
         vertex 1.020284e+001 2.170950e+001 1.210241e+002
         vertex 9.116652e+000 1.972904e+001 1.231105e+002
         vertex 1.030251e+001 2.120121e+001 1.207307e+002
      endloop
   endfacet
   facet normal 9.231603e-001 -8.832724e-002 3.741301e-001
      outer loop
         vertex 1.030251e+001 2.120121e+001 1.207307e+002
         vertex 9.116652e+000 1.972904e+001 1.231105e+002
         vertex 1.031626e+001 2.113108e+001 1.206902e+002
      endloop
   endfacet
   facet normal 9.056970e-001 -1.286523e-001 4.039326e-001
      outer loop
         vertex 1.031626e+001 2.113108e+001 1.206902e+002
         vertex 9.116652e+000 1.972904e+001 1.231105e+002
         vertex 9.260696e+000 1.881839e+001 1.224884e+002
      endloop
   endfacet
   facet normal 9.266405e-001 -1.122627e-001 3.587960e-001
      outer loop
         vertex 1.031626e+001 2.113108e+001 1.206902e+002
         vertex 9.260696e+000 1.881839e+001 1.224884e+002
         vertex 1.034746e+001 2.069830e+001 1.204403e+002
      endloop
   endfacet
   facet normal 9.118702e-001 -1.644895e-001 3.760797e-001
      outer loop
         vertex 1.034746e+001 2.069830e+001 1.204403e+002
         vertex 9.260696e+000 1.881839e+001 1.224884e+002
         vertex 9.436907e+000 1.804417e+001 1.217096e+002
      endloop
   endfacet
   facet normal 9.310613e-001 -1.420269e-001 3.360852e-001
      outer loop
         vertex 1.034746e+001 2.069830e+001 1.204403e+002
         vertex 9.436907e+000 1.804417e+001 1.217096e+002
         vertex 1.038720e+001 2.014691e+001 1.201220e+002
      endloop
   endfacet
   facet normal 9.187458e-001 -1.971906e-001 3.420850e-001
      outer loop
         vertex 1.038720e+001 2.014691e+001 1.201220e+002
         vertex 9.436907e+000 1.804417e+001 1.217096e+002
         vertex 9.638988e+000 1.743404e+001 1.208019e+002
      endloop
   endfacet
   facet normal 9.353212e-001 -1.713449e-001 3.095405e-001
      outer loop
         vertex 1.038720e+001 2.014691e+001 1.201220e+002
         vertex 9.638988e+000 1.743404e+001 1.208019e+002
         vertex 1.042877e+001 1.957028e+001 1.197891e+002
      endloop
   endfacet
   facet normal 9.250860e-001 -2.386405e-001 2.954090e-001
      outer loop
         vertex 9.859713e+000 1.700981e+001 1.197978e+002
         vertex 1.040431e+001 1.871501e+001 1.192953e+002
         vertex 9.638988e+000 1.743404e+001 1.208019e+002
      endloop
   endfacet
   facet normal 9.351158e-001 -1.980051e-001 2.938577e-001
      outer loop
         vertex 9.638988e+000 1.743404e+001 1.208019e+002
         vertex 1.040431e+001 1.871501e+001 1.192953e+002
         vertex 1.043970e+001 1.941870e+001 1.197016e+002
      endloop
   endfacet
   facet normal 9.354172e-001 -1.835280e-001 3.021790e-001
      outer loop
         vertex 9.638988e+000 1.743404e+001 1.208019e+002
         vertex 1.043970e+001 1.941870e+001 1.197016e+002
         vertex 1.042877e+001 1.957028e+001 1.197891e+002
      endloop
   endfacet
   facet normal 9.316936e-001 -2.987642e-001 2.066085e-001
      outer loop
         vertex 1.005867e+001 1.600801e+001 1.177324e+002
         vertex 1.019468e+001 1.679068e+001 1.181843e+002
         vertex 1.009120e+001 1.678664e+001 1.187330e+002
      endloop
   endfacet
   facet normal 9.364976e-001 -2.708957e-001 2.226829e-001
      outer loop
         vertex 1.009120e+001 1.678664e+001 1.187330e+002
         vertex 1.019468e+001 1.679068e+001 1.181843e+002
         vertex 1.034556e+001 1.765886e+001 1.186855e+002
      endloop
   endfacet
   facet normal 9.306931e-001 -2.671475e-001 2.498850e-001
      outer loop
         vertex 1.009120e+001 1.678664e+001 1.187330e+002
         vertex 1.034556e+001 1.765886e+001 1.186855e+002
         vertex 9.859713e+000 1.700981e+001 1.197978e+002
      endloop
   endfacet
   facet normal 9.350994e-001 -2.516492e-001 2.495233e-001
      outer loop
         vertex 9.859713e+000 1.700981e+001 1.197978e+002
         vertex 1.034556e+001 1.765886e+001 1.186855e+002
         vertex 1.035351e+001 1.770461e+001 1.187119e+002
      endloop
   endfacet
   facet normal 9.368243e-001 -2.339883e-001 2.600185e-001
      outer loop
         vertex 9.859713e+000 1.700981e+001 1.197978e+002
         vertex 1.035351e+001 1.770461e+001 1.187119e+002
         vertex 1.040431e+001 1.871501e+001 1.192953e+002
      endloop
   endfacet
   facet normal 8.841745e-001 -4.510883e-001 1.214694e-001
      outer loop
         vertex 8.858521e+000 1.274283e+001 1.158472e+002
         vertex 9.320431e+000 1.399953e+001 1.165728e+002
         vertex 9.265204e+000 1.386094e+001 1.171743e+002
      endloop
   endfacet
   facet normal 9.011122e-001 -4.080029e-001 1.467324e-001
      outer loop
         vertex 9.265204e+000 1.386094e+001 1.171743e+002
         vertex 9.320431e+000 1.399953e+001 1.165728e+002
         vertex 9.804780e+000 1.531727e+001 1.173336e+002
      endloop
   endfacet
   facet normal 8.934723e-001 -4.095874e-001 1.842428e-001
      outer loop
         vertex 9.265204e+000 1.386094e+001 1.171743e+002
         vertex 9.804780e+000 1.531727e+001 1.173336e+002
         vertex 8.915565e+000 1.388207e+001 1.187990e+002
      endloop
   endfacet
   facet normal 9.071938e-001 -3.734501e-001 1.937379e-001
      outer loop
         vertex 8.915565e+000 1.388207e+001 1.187990e+002
         vertex 9.804780e+000 1.531727e+001 1.173336e+002
         vertex 1.005867e+001 1.600801e+001 1.177324e+002
      endloop
   endfacet
   facet normal 8.046936e-001 -5.908052e-001 5.845759e-002
      outer loop
         vertex 6.892852e+000 9.768982e+000 1.141303e+002
         vertex 8.010648e+000 1.146009e+001 1.151067e+002
         vertex 7.763876e+000 1.116487e+001 1.166264e+002
      endloop
   endfacet
   facet normal 8.371139e-001 -5.400013e-001 8.740135e-002
      outer loop
         vertex 7.763876e+000 1.116487e+001 1.166264e+002
         vertex 8.010648e+000 1.146009e+001 1.151067e+002
         vertex 8.858521e+000 1.274283e+001 1.158472e+002
      endloop
   endfacet
   facet normal 6.599910e-001 -7.507010e-001 2.932371e-002
      outer loop
         vertex 3.941010e+000 7.077096e+000 1.154609e+002
         vertex 4.249451e+000 7.219278e+000 1.126582e+002
         vertex 5.858943e+000 8.752088e+000 1.160159e+002
      endloop
   endfacet
   facet normal 6.995609e-001 -7.145724e-001 9.101922e-004
      outer loop
         vertex 5.858943e+000 8.752088e+000 1.160159e+002
         vertex 4.249451e+000 7.219278e+000 1.126582e+002
         vertex 6.284325e+000 9.182023e+000 1.137914e+002
      endloop
   endfacet
   facet normal 7.423203e-001 -6.695491e-001 2.577962e-002
      outer loop
         vertex 5.858943e+000 8.752088e+000 1.160159e+002
         vertex 6.284325e+000 9.182023e+000 1.137914e+002
         vertex 6.892852e+000 9.768982e+000 1.141303e+002
      endloop
   endfacet
   facet normal 7.678224e-001 -6.363941e-001 7.383343e-002
      outer loop
         vertex 6.892852e+000 9.768982e+000 1.141303e+002
         vertex 7.763876e+000 1.116487e+001 1.166264e+002
         vertex 5.858943e+000 8.752088e+000 1.160159e+002
      endloop
   endfacet
   facet normal 7.754641e-001 -6.127943e-001 1.521139e-001
      outer loop
         vertex 5.858943e+000 8.752088e+000 1.160159e+002
         vertex 7.763876e+000 1.116487e+001 1.166264e+002
         vertex 7.307360e+000 1.119245e+001 1.187478e+002
      endloop
   endfacet
   facet normal 7.340742e-001 -6.533056e-001 1.852753e-001
      outer loop
         vertex 5.858943e+000 8.752088e+000 1.160159e+002
         vertex 7.307360e+000 1.119245e+001 1.187478e+002
         vertex 5.307034e+000 8.785439e+000 1.185806e+002
      endloop
   endfacet
   facet normal 7.507302e-001 -6.043855e-001 2.666879e-001
      outer loop
         vertex 5.307034e+000 8.785439e+000 1.185806e+002
         vertex 7.307360e+000 1.119245e+001 1.187478e+002
         vertex 6.855694e+000 1.162790e+001 1.208253e+002
      endloop
   endfacet
   facet normal 7.078154e-001 -6.364410e-001 3.064967e-001
      outer loop
         vertex 5.307034e+000 8.785439e+000 1.185806e+002
         vertex 6.855694e+000 1.162790e+001 1.208253e+002
         vertex 4.760988e+000 9.311879e+000 1.210922e+002
      endloop
   endfacet
   facet normal 7.265333e-001 -5.740691e-001 3.776163e-001
      outer loop
         vertex 4.760988e+000 9.311879e+000 1.210922e+002
         vertex 6.855694e+000 1.162790e+001 1.208253e+002
         vertex 6.425020e+000 1.245565e+001 1.227846e+002
      endloop
   endfacet
   facet normal 6.824418e-001 -5.965366e-001 4.223948e-001
      outer loop
         vertex 4.760988e+000 9.311879e+000 1.210922e+002
         vertex 6.425020e+000 1.245565e+001 1.227846e+002
         vertex 4.240321e+000 1.031259e+001 1.234609e+002
      endloop
   endfacet
   facet normal 7.037383e-001 -5.229285e-001 4.809347e-001
      outer loop
         vertex 4.240321e+000 1.031259e+001 1.234609e+002
         vertex 6.425020e+000 1.245565e+001 1.227846e+002
         vertex 6.030728e+000 1.364611e+001 1.245557e+002
      endloop
   endfacet
   facet normal 6.588600e-001 -5.350184e-001 5.288278e-001
      outer loop
         vertex 4.240321e+000 1.031259e+001 1.234609e+002
         vertex 6.030728e+000 1.364611e+001 1.245557e+002
         vertex 3.763638e+000 1.175181e+001 1.256020e+002
      endloop
   endfacet
   facet normal 6.831597e-001 -4.527914e-001 5.729509e-001
      outer loop
         vertex 3.763638e+000 1.175181e+001 1.256020e+002
         vertex 6.030728e+000 1.364611e+001 1.245557e+002
         vertex 5.686910e+000 1.515675e+001 1.260753e+002
      endloop
   endfacet
   facet normal 6.379129e-001 -4.540850e-001 6.219919e-001
      outer loop
         vertex 3.763638e+000 1.175181e+001 1.256020e+002
         vertex 5.686910e+000 1.515675e+001 1.260753e+002
         vertex 3.347976e+000 1.357812e+001 1.274392e+002
      endloop
   endfacet
   facet normal 6.655329e-001 -3.661643e-001 6.503764e-001
      outer loop
         vertex 3.347976e+000 1.357812e+001 1.274392e+002
         vertex 5.686910e+000 1.515675e+001 1.260753e+002
         vertex 5.405853e+000 1.693358e+001 1.272891e+002
      endloop
   endfacet
   facet normal 6.203490e-001 -3.566287e-001 6.985579e-001
      outer loop
         vertex 3.347976e+000 1.357812e+001 1.274392e+002
         vertex 5.405853e+000 1.693358e+001 1.272891e+002
         vertex 3.008189e+000 1.572623e+001 1.289066e+002
      endloop
   endfacet
   facet normal 6.514881e-001 -2.661430e-001 7.104443e-001
      outer loop
         vertex 3.008189e+000 1.572623e+001 1.289066e+002
         vertex 5.405853e+000 1.693358e+001 1.272891e+002
         vertex 5.197600e+000 1.891309e+001 1.281537e+002
      endloop
   endfacet
   facet normal 6.067960e-001 -2.461323e-001 7.557893e-001
      outer loop
         vertex 3.008189e+000 1.572623e+001 1.289066e+002
         vertex 5.197600e+000 1.891309e+001 1.281537e+002
         vertex 2.756421e+000 1.811938e+001 1.299520e+002
      endloop
   endfacet
   facet normal 6.415270e-001 -1.563020e-001 7.510079e-001
      outer loop
         vertex 2.756421e+000 1.811938e+001 1.299520e+002
         vertex 5.197600e+000 1.891309e+001 1.281537e+002
         vertex 5.069596e+000 2.102456e+001 1.286383e+002
      endloop
   endfacet
   facet normal 5.977384e-001 -1.265448e-001 7.916408e-001
      outer loop
         vertex 2.756421e+000 1.811938e+001 1.299520e+002
         vertex 5.069596e+000 2.102456e+001 1.286383e+002
         vertex 2.601668e+000 2.067204e+001 1.305378e+002
      endloop
   endfacet
   facet normal 6.360055e-001 -4.056668e-002 7.706175e-001
      outer loop
         vertex 2.601668e+000 2.067204e+001 1.305378e+002
         vertex 5.069596e+000 2.102456e+001 1.286383e+002
         vertex 5.026413e+000 2.319250e+001 1.287255e+002
      endloop
   endfacet
   facet normal 5.934997e-001 -2.139838e-003 8.048314e-001
      outer loop
         vertex 2.601668e+000 2.067204e+001 1.305378e+002
         vertex 5.026413e+000 2.319250e+001 1.287255e+002
         vertex 2.549462e+000 2.329300e+001 1.306432e+002
      endloop
   endfacet
   facet normal 8.578743e-001 -4.990745e-001 1.223775e-001
      outer loop
         vertex 8.858521e+000 1.274283e+001 1.158472e+002
         vertex 9.265204e+000 1.386094e+001 1.171743e+002
         vertex 7.763876e+000 1.116487e+001 1.166264e+002
      endloop
   endfacet
   facet normal 8.599116e-001 -4.804103e-001 1.725052e-001
      outer loop
         vertex 7.763876e+000 1.116487e+001 1.166264e+002
         vertex 9.265204e+000 1.386094e+001 1.171743e+002
         vertex 8.915565e+000 1.388207e+001 1.187990e+002
      endloop
   endfacet
   facet normal 8.269956e-001 -5.257350e-001 1.992005e-001
      outer loop
         vertex 7.763876e+000 1.116487e+001 1.166264e+002
         vertex 8.915565e+000 1.388207e+001 1.187990e+002
         vertex 7.307360e+000 1.119245e+001 1.187478e+002
      endloop
   endfacet
   facet normal 8.404065e-001 -4.739393e-001 2.628657e-001
      outer loop
         vertex 7.307360e+000 1.119245e+001 1.187478e+002
         vertex 8.915565e+000 1.388207e+001 1.187990e+002
         vertex 8.569639e+000 1.421558e+001 1.203902e+002
      endloop
   endfacet
   facet normal 8.057575e-001 -5.122457e-001 2.972529e-001
      outer loop
         vertex 7.307360e+000 1.119245e+001 1.187478e+002
         vertex 8.569639e+000 1.421558e+001 1.203902e+002
         vertex 6.855694e+000 1.162790e+001 1.208253e+002
      endloop
   endfacet
   facet normal 8.213188e-001 -4.501877e-001 3.503805e-001
      outer loop
         vertex 6.855694e+000 1.162790e+001 1.208253e+002
         vertex 8.569639e+000 1.421558e+001 1.203902e+002
         vertex 8.239791e+000 1.484954e+001 1.218908e+002
      endloop
   endfacet
   facet normal 7.852291e-001 -4.801175e-001 3.910274e-001
      outer loop
         vertex 6.855694e+000 1.162790e+001 1.208253e+002
         vertex 8.239791e+000 1.484954e+001 1.218908e+002
         vertex 6.425020e+000 1.245565e+001 1.227846e+002
      endloop
   endfacet
   facet normal 8.033304e-001 -4.100043e-001 4.319223e-001
      outer loop
         vertex 6.425020e+000 1.245565e+001 1.227846e+002
         vertex 8.239791e+000 1.484954e+001 1.218908e+002
         vertex 7.937808e+000 1.576130e+001 1.232472e+002
      endloop
   endfacet
   facet normal 7.661443e-001 -4.304986e-001 4.771728e-001
      outer loop
         vertex 6.425020e+000 1.245565e+001 1.227846e+002
         vertex 7.937808e+000 1.576130e+001 1.232472e+002
         vertex 6.030728e+000 1.364611e+001 1.245557e+002
      endloop
   endfacet
   facet normal 7.870842e-001 -3.548252e-001 5.045767e-001
      outer loop
         vertex 6.030728e+000 1.364611e+001 1.245557e+002
         vertex 7.937808e+000 1.576130e+001 1.232472e+002
         vertex 7.674481e+000 1.691828e+001 1.244111e+002
      endloop
   endfacet
   facet normal 7.491850e-001 -3.651623e-001 5.526105e-001
      outer loop
         vertex 6.030728e+000 1.364611e+001 1.245557e+002
         vertex 7.674481e+000 1.691828e+001 1.244111e+002
         vertex 5.686910e+000 1.515675e+001 1.260753e+002
      endloop
   endfacet
   facet normal 7.731606e-001 -2.866224e-001 5.657474e-001
      outer loop
         vertex 5.686910e+000 1.515675e+001 1.260753e+002
         vertex 7.674481e+000 1.691828e+001 1.244111e+002
         vertex 7.459222e+000 1.827913e+001 1.253407e+002
      endloop
   endfacet
   facet normal 7.349575e-001 -2.864434e-001 6.146443e-001
      outer loop
         vertex 5.686910e+000 1.515675e+001 1.260753e+002
         vertex 7.459222e+000 1.827913e+001 1.253407e+002
         vertex 5.405853e+000 1.693358e+001 1.272891e+002
      endloop
   endfacet
   facet normal 7.620576e-001 -2.078333e-001 6.132483e-001
      outer loop
         vertex 5.405853e+000 1.693358e+001 1.272891e+002
         vertex 7.459222e+000 1.827913e+001 1.253407e+002
         vertex 7.299725e+000 1.979522e+001 1.260029e+002
      endloop
   endfacet
   facet normal 7.239700e-001 -1.971552e-001 6.610577e-001
      outer loop
         vertex 5.405853e+000 1.693358e+001 1.272891e+002
         vertex 7.299725e+000 1.979522e+001 1.260029e+002
         vertex 5.197600e+000 1.891309e+001 1.281537e+002
      endloop
   endfacet
   facet normal 7.541717e-001 -1.212736e-001 6.453818e-001
      outer loop
         vertex 5.197600e+000 1.891309e+001 1.281537e+002
         vertex 7.299725e+000 1.979522e+001 1.260029e+002
         vertex 7.201687e+000 2.141236e+001 1.263741e+002
      endloop
   endfacet
   facet normal 7.166152e-001 -1.004887e-001 6.901917e-001
      outer loop
         vertex 5.197600e+000 1.891309e+001 1.281537e+002
         vertex 7.201687e+000 2.141236e+001 1.263741e+002
         vertex 5.069596e+000 2.102456e+001 1.286383e+002
      endloop
   endfacet
   facet normal 7.497849e-001 -3.003662e-002 6.609996e-001
      outer loop
         vertex 5.069596e+000 2.102456e+001 1.286383e+002
         vertex 7.201687e+000 2.141236e+001 1.263741e+002
         vertex 7.168614e+000 2.307277e+001 1.264408e+002
      endloop
   endfacet
   facet normal 7.131561e-001 1.015015e-004 7.010053e-001
      outer loop
         vertex 5.069596e+000 2.102456e+001 1.286383e+002
         vertex 7.168614e+000 2.307277e+001 1.264408e+002
         vertex 5.026413e+000 2.319250e+001 1.287255e+002
      endloop
   endfacet
   facet normal 9.117519e-001 -3.485020e-001 2.173816e-001
      outer loop
         vertex 1.005867e+001 1.600801e+001 1.177324e+002
         vertex 1.009120e+001 1.678664e+001 1.187330e+002
         vertex 8.915565e+000 1.388207e+001 1.187990e+002
      endloop
   endfacet
   facet normal 9.089510e-001 -3.317655e-001 2.524671e-001
      outer loop
         vertex 8.915565e+000 1.388207e+001 1.187990e+002
         vertex 1.009120e+001 1.678664e+001 1.187330e+002
         vertex 9.859713e+000 1.700981e+001 1.197978e+002
      endloop
   endfacet
   facet normal 8.833959e-001 -3.753557e-001 2.805707e-001
      outer loop
         vertex 8.915565e+000 1.388207e+001 1.187990e+002
         vertex 9.859713e+000 1.700981e+001 1.197978e+002
         vertex 8.569639e+000 1.421558e+001 1.203902e+002
      endloop
   endfacet
   facet normal 8.954448e-001 -3.151664e-001 3.144023e-001
      outer loop
         vertex 8.569639e+000 1.421558e+001 1.203902e+002
         vertex 9.859713e+000 1.700981e+001 1.197978e+002
         vertex 9.638988e+000 1.743404e+001 1.208019e+002
      endloop
   endfacet
   facet normal 8.682218e-001 -3.517999e-001 3.498969e-001
      outer loop
         vertex 8.569639e+000 1.421558e+001 1.203902e+002
         vertex 9.638988e+000 1.743404e+001 1.208019e+002
         vertex 8.239791e+000 1.484954e+001 1.218908e+002
      endloop
   endfacet
   facet normal 8.827082e-001 -2.869346e-001 3.721488e-001
      outer loop
         vertex 8.239791e+000 1.484954e+001 1.218908e+002
         vertex 9.638988e+000 1.743404e+001 1.208019e+002
         vertex 9.436907e+000 1.804417e+001 1.217096e+002
      endloop
   endfacet
   facet normal 8.541070e-001 -3.153101e-001 4.136191e-001
      outer loop
         vertex 8.239791e+000 1.484954e+001 1.218908e+002
         vertex 9.436907e+000 1.804417e+001 1.217096e+002
         vertex 7.937808e+000 1.576130e+001 1.232472e+002
      endloop
   endfacet
   facet normal 8.711964e-001 -2.480793e-001 4.236431e-001
      outer loop
         vertex 7.937808e+000 1.576130e+001 1.232472e+002
         vertex 9.436907e+000 1.804417e+001 1.217096e+002
         vertex 9.260696e+000 1.881839e+001 1.224884e+002
      endloop
   endfacet
   facet normal 8.415561e-001 -2.671902e-001 4.694601e-001
      outer loop
         vertex 7.937808e+000 1.576130e+001 1.232472e+002
         vertex 9.260696e+000 1.881839e+001 1.224884e+002
         vertex 7.674481e+000 1.691828e+001 1.244111e+002
      endloop
   endfacet
   facet normal 8.613209e-001 -1.999889e-001 4.670447e-001
      outer loop
         vertex 7.674481e+000 1.691828e+001 1.244111e+002
         vertex 9.260696e+000 1.881839e+001 1.224884e+002
         vertex 9.116652e+000 1.972904e+001 1.231105e+002
      endloop
   endfacet
   facet normal 8.310174e-001 -2.091600e-001 5.154241e-001
      outer loop
         vertex 7.674481e+000 1.691828e+001 1.244111e+002
         vertex 9.116652e+000 1.972904e+001 1.231105e+002
         vertex 7.459222e+000 1.827913e+001 1.253407e+002
      endloop
   endfacet
   facet normal 8.534346e-001 -1.443820e-001 5.008026e-001
      outer loop
         vertex 7.459222e+000 1.827913e+001 1.253407e+002
         vertex 9.116652e+000 1.972904e+001 1.231105e+002
         vertex 9.009919e+000 2.074356e+001 1.235537e+002
      endloop
   endfacet
   facet normal 8.228679e-001 -1.432934e-001 5.498686e-001
      outer loop
         vertex 7.459222e+000 1.827913e+001 1.253407e+002
         vertex 9.009919e+000 2.074356e+001 1.235537e+002
         vertex 7.299725e+000 1.979522e+001 1.260029e+002
      endloop
   endfacet
   facet normal 8.478191e-001 -8.324604e-002 5.237105e-001
      outer loop
         vertex 7.299725e+000 1.979522e+001 1.260029e+002
         vertex 9.009919e+000 2.074356e+001 1.235537e+002
         vertex 8.944315e+000 2.182571e+001 1.238020e+002
      endloop
   endfacet
   facet normal 8.173984e-001 -7.194421e-002 5.715626e-001
      outer loop
         vertex 7.299725e+000 1.979522e+001 1.260029e+002
         vertex 8.944315e+000 2.182571e+001 1.238020e+002
         vertex 7.201687e+000 2.141236e+001 1.263741e+002
      endloop
   endfacet
   facet normal 8.446755e-001 -1.876569e-002 5.349497e-001
      outer loop
         vertex 7.201687e+000 2.141236e+001 1.263741e+002
         vertex 8.944315e+000 2.182571e+001 1.238020e+002
         vertex 8.922184e+000 2.293681e+001 1.238467e+002
      endloop
   endfacet
   facet normal 8.148046e-001 2.337739e-003 5.797309e-001
      outer loop
         vertex 7.201687e+000 2.141236e+001 1.263741e+002
         vertex 8.922184e+000 2.293681e+001 1.238467e+002
         vertex 7.168614e+000 2.307277e+001 1.264408e+002
      endloop
   endfacet
   facet normal -9.859194e-001 -1.217048e-001 -1.146774e-001
      outer loop
         vertex 5.514626e+000 9.797164e+000 9.904523e+001
         vertex 6.273173e+000 7.325411e-002 1.028435e+002
         vertex 4.659510e+000 5.067838e+000 1.114161e+002
      endloop
   endfacet
   facet normal -9.859194e-001 -1.217048e-001 -1.146774e-001
      outer loop
         vertex 4.659510e+000 5.067838e+000 1.114161e+002
         vertex 6.273173e+000 7.325411e-002 1.028435e+002
         vertex 4.657746e+000 5.045225e+000 1.114552e+002
      endloop
   endfacet
   facet normal -9.859194e-001 -1.217048e-001 -1.146774e-001
      outer loop
         vertex 1.895446e+000 1.218370e+001 1.276277e+002
         vertex 1.774652e+000 1.276546e+001 1.280488e+002
         vertex 4.581004e+000 2.141169e+001 9.474563e+001
      endloop
   endfacet
   facet normal -9.859194e-001 -1.217048e-001 -1.146774e-001
      outer loop
         vertex 3.230055e+000 7.810453e+000 1.207949e+002
         vertex 3.167376e+000 7.980976e+000 1.211528e+002
         vertex 4.581004e+000 2.141169e+001 9.474563e+001
      endloop
   endfacet
   facet normal -9.859194e-001 -1.217048e-001 -1.146774e-001
      outer loop
         vertex 4.581004e+000 2.141169e+001 9.474563e+001
         vertex 3.167376e+000 7.980976e+000 1.211528e+002
         vertex 2.716575e+000 9.207411e+000 1.237269e+002
      endloop
   endfacet
   facet normal -9.859194e-001 -1.217048e-001 -1.146774e-001
      outer loop
         vertex 5.514626e+000 9.797164e+000 9.904523e+001
         vertex 4.659510e+000 5.067838e+000 1.114161e+002
         vertex 4.581004e+000 2.141169e+001 9.474563e+001
      endloop
   endfacet
   facet normal -9.859194e-001 -1.217048e-001 -1.146774e-001
      outer loop
         vertex 4.581004e+000 2.141169e+001 9.474563e+001
         vertex 4.659510e+000 5.067838e+000 1.114161e+002
         vertex 4.249451e+000 7.219278e+000 1.126582e+002
      endloop
   endfacet
   facet normal -9.859194e-001 -1.217048e-001 -1.146774e-001
      outer loop
         vertex 4.581004e+000 2.141169e+001 9.474563e+001
         vertex 4.249451e+000 7.219278e+000 1.126582e+002
         vertex 3.941010e+000 7.077096e+000 1.154609e+002
      endloop
   endfacet
   facet normal -9.859194e-001 -1.217048e-001 -1.146774e-001
      outer loop
         vertex 2.716575e+000 9.207411e+000 1.237269e+002
         vertex 2.583198e+000 9.570270e+000 1.244885e+002
         vertex 4.581004e+000 2.141169e+001 9.474563e+001
      endloop
   endfacet
   facet normal -9.859194e-001 -1.217048e-001 -1.146774e-001
      outer loop
         vertex 4.581004e+000 2.141169e+001 9.474563e+001
         vertex 2.583198e+000 9.570270e+000 1.244885e+002
         vertex 2.249598e+000 1.083794e+001 1.260112e+002
      endloop
   endfacet
   facet normal -9.859194e-001 -1.217048e-001 -1.146774e-001
      outer loop
         vertex 4.581004e+000 2.141169e+001 9.474563e+001
         vertex 2.249598e+000 1.083794e+001 1.260112e+002
         vertex 1.895446e+000 1.218370e+001 1.276277e+002
      endloop
   endfacet
   facet normal -9.859194e-001 -1.217048e-001 -1.146774e-001
      outer loop
         vertex 1.774652e+000 1.276546e+001 1.280488e+002
         vertex 1.296997e+000 1.506594e+001 1.297139e+002
         vertex 4.581004e+000 2.141169e+001 9.474563e+001
      endloop
   endfacet
   facet normal -9.859194e-001 -1.217048e-001 -1.146774e-001
      outer loop
         vertex 4.581004e+000 2.141169e+001 9.474563e+001
         vertex 1.296997e+000 1.506594e+001 1.297139e+002
         vertex 1.208389e+000 1.549269e+001 1.300228e+002
      endloop
   endfacet
   facet normal -9.859194e-001 -1.217048e-001 -1.146774e-001
      outer loop
         vertex 4.581004e+000 2.141169e+001 9.474563e+001
         vertex 1.208389e+000 1.549269e+001 1.300228e+002
         vertex 8.401554e-001 1.766529e+001 1.308829e+002
      endloop
   endfacet
   facet normal -9.859194e-001 -1.217048e-001 -1.146774e-001
      outer loop
         vertex 8.401554e-001 1.766529e+001 1.308829e+002
         vertex 5.635750e-001 1.929714e+001 1.315289e+002
         vertex 4.581004e+000 2.141169e+001 9.474563e+001
      endloop
   endfacet
   facet normal -9.859194e-001 -1.217048e-001 -1.146774e-001
      outer loop
         vertex 4.581004e+000 2.141169e+001 9.474563e+001
         vertex 5.635750e-001 1.929714e+001 1.315289e+002
         vertex 4.061507e-001 2.043398e+001 1.316758e+002
      endloop
   endfacet
   facet normal -9.859194e-001 -1.217048e-001 -1.146774e-001
      outer loop
         vertex 4.581004e+000 2.141169e+001 9.474563e+001
         vertex 4.061507e-001 2.043398e+001 1.316758e+002
         vertex 0.000000e+000 2.336699e+001 1.320549e+002
      endloop
   endfacet
   facet normal -9.859194e-001 -1.217048e-001 -1.146774e-001
      outer loop
         vertex 3.941010e+000 7.077096e+000 1.154609e+002
         vertex 3.796899e+000 7.010667e+000 1.167703e+002
         vertex 4.581004e+000 2.141169e+001 9.474563e+001
      endloop
   endfacet
   facet normal -9.859194e-001 -1.217048e-001 -1.146774e-001
      outer loop
         vertex 4.581004e+000 2.141169e+001 9.474563e+001
         vertex 3.796899e+000 7.010667e+000 1.167703e+002
         vertex 3.573733e+000 7.325542e+000 1.183548e+002
      endloop
   endfacet
   facet normal -9.859194e-001 -1.217048e-001 -1.146774e-001
      outer loop
         vertex 4.581004e+000 2.141169e+001 9.474563e+001
         vertex 3.573733e+000 7.325542e+000 1.183548e+002
         vertex 3.230055e+000 7.810453e+000 1.207949e+002
      endloop
   endfacet
   facet normal -6.643248e-001 -3.163467e-001 -6.771982e-001
      outer loop
         vertex 6.437394e+000 0.000000e+000 1.027167e+002
         vertex 6.273173e+000 7.325411e-002 1.028435e+002
         vertex 5.514626e+000 9.797164e+000 9.904523e+001
      endloop
   endfacet
   facet normal -6.643248e-001 -3.163467e-001 -6.771982e-001
      outer loop
         vertex 4.399066e+000 2.138923e+001 9.472446e+001
         vertex 4.405868e+000 2.140973e+001 9.470822e+001
         vertex 5.514626e+000 9.797164e+000 9.904523e+001
      endloop
   endfacet
   facet normal -6.643248e-001 -3.163467e-001 -6.771982e-001
      outer loop
         vertex 5.514626e+000 9.797164e+000 9.904523e+001
         vertex 4.405868e+000 2.140973e+001 9.470822e+001
         vertex 4.597141e+000 2.140013e+001 9.452506e+001
      endloop
   endfacet
   facet normal -6.643248e-001 -3.163467e-001 -6.771982e-001
      outer loop
         vertex 5.514626e+000 9.797164e+000 9.904523e+001
         vertex 4.597141e+000 2.140013e+001 9.452506e+001
         vertex 6.437394e+000 0.000000e+000 1.027167e+002
      endloop
   endfacet
   facet normal -1.493730e-001 3.326904e-001 9.311310e-001
      outer loop
         vertex 4.581004e+000 2.141169e+001 9.474563e+001
         vertex 4.399066e+000 2.138923e+001 9.472446e+001
         vertex 5.514626e+000 9.797164e+000 9.904523e+001
      endloop
   endfacet
   facet normal -7.431448e-001 1.825143e-001 6.437579e-001
      outer loop
         vertex 4.597141e+000 2.140013e+001 9.452506e+001
         vertex 6.190091e-001 2.116298e+001 9.000000e+001
         vertex 6.437394e+000 0.000000e+000 1.027167e+002
      endloop
   endfacet
   facet normal -7.431448e-001 1.825143e-001 6.437579e-001
      outer loop
         vertex 6.437394e+000 0.000000e+000 1.027167e+002
         vertex 6.190091e-001 2.116298e+001 9.000000e+001
         vertex 6.190091e-001 0.000000e+000 9.600000e+001
      endloop
   endfacet
   facet normal -1.663933e-001 6.458426e-001 7.451178e-001
      outer loop
         vertex 4.405868e+000 2.140973e+001 9.470822e+001
         vertex 4.399066e+000 2.138923e+001 9.472446e+001
         vertex 4.581004e+000 2.141169e+001 9.474563e+001
      endloop
   endfacet
   facet normal 0.000000e+000 0.000000e+000 -1.000000e+000
      outer loop
         vertex 1.561901e+001 2.000000e+001 1.500000e+001
         vertex 1.561901e+001 0.000000e+000 1.500000e+001
         vertex 6.190091e-001 2.000000e+001 1.500000e+001
      endloop
   endfacet
   facet normal 0.000000e+000 0.000000e+000 -1.000000e+000
      outer loop
         vertex 6.190091e-001 2.000000e+001 1.500000e+001
         vertex 1.561901e+001 0.000000e+000 1.500000e+001
         vertex 6.190091e-001 0.000000e+000 1.500000e+001
      endloop
   endfacet
endsolid