solid Cutting Tool - Alternative 4
   facet normal 7.071068e-001 -7.071068e-001 0.000000e+000
      outer loop
         vertex 2.000000e+001 5.000001e-001 5.000000e-001
         vertex 2.000000e+001 5.000001e-001 1.035827e+002
         vertex 1.950000e+001 0.000000e+000 5.000000e-001
      endloop
   endfacet
   facet normal 7.071068e-001 -7.071068e-001 0.000000e+000
      outer loop
         vertex 1.950000e+001 0.000000e+000 5.000000e-001
         vertex 2.000000e+001 5.000001e-001 1.035827e+002
         vertex 1.950000e+001 0.000000e+000 1.027167e+002
      endloop
   endfacet
   facet normal -9.859194e-001 -1.217048e-001 -1.146774e-001
      outer loop
         vertex 5.654164e+000 7.325411e-002 1.028435e+002
         vertex 4.038737e+000 5.045225e+000 1.114552e+002
         vertex 4.040501e+000 5.067838e+000 1.114161e+002
      endloop
   endfacet
   facet normal -9.859194e-001 -1.217048e-001 -1.146774e-001
      outer loop
         vertex 2.135883e+000 1.374996e+001 1.185765e+002
         vertex 7.494651e-001 2.100000e+001 1.228017e+002
         vertex 2.409058e+000 1.362746e+001 1.163580e+002
      endloop
   endfacet
   facet normal -9.859194e-001 -1.217048e-001 -1.146774e-001
      outer loop
         vertex 2.409058e+000 1.362746e+001 1.163580e+002
         vertex 7.494651e-001 2.100000e+001 1.228017e+002
         vertex 3.995088e+000 2.100000e+001 9.489803e+001
      endloop
   endfacet
   facet normal -9.859194e-001 -1.217048e-001 -1.146774e-001
      outer loop
         vertex 2.409058e+000 1.362746e+001 1.163580e+002
         vertex 3.995088e+000 2.100000e+001 9.489803e+001
         vertex 4.040501e+000 5.067838e+000 1.114161e+002
      endloop
   endfacet
   facet normal -9.859194e-001 -1.217048e-001 -1.146774e-001
      outer loop
         vertex 4.040501e+000 5.067838e+000 1.114161e+002
         vertex 3.995088e+000 2.100000e+001 9.489803e+001
         vertex 4.895617e+000 9.797164e+000 9.904523e+001
      endloop
   endfacet
   facet normal -9.859194e-001 -1.217048e-001 -1.146774e-001
      outer loop
         vertex 4.040501e+000 5.067838e+000 1.114161e+002
         vertex 4.895617e+000 9.797164e+000 9.904523e+001
         vertex 5.654164e+000 7.325411e-002 1.028435e+002
      endloop
   endfacet
   facet normal 3.541654e-001 -4.193996e-001 8.358654e-001
      outer loop
         vertex 7.494651e-001 2.100000e+001 1.228017e+002
         vertex 2.135883e+000 1.374996e+001 1.185765e+002
         vertex 5.911485e+000 2.100000e+001 1.206145e+002
      endloop
   endfacet
   facet normal 3.541654e-001 -4.193996e-001 8.358654e-001
      outer loop
         vertex 5.911485e+000 2.100000e+001 1.206145e+002
         vertex 2.135883e+000 1.374996e+001 1.185765e+002
         vertex 6.775979e+000 1.615453e+001 1.178170e+002
      endloop
   endfacet
   facet normal 1.000000e+000 0.000000e+000 0.000000e+000
      outer loop
         vertex 2.000000e+001 5.045225e+000 1.114552e+002
         vertex 2.000000e+001 5.000001e-001 1.035827e+002
         vertex 2.000000e+001 5.067838e+000 1.114161e+002
      endloop
   endfacet
   facet normal 1.000000e+000 0.000000e+000 0.000000e+000
      outer loop
         vertex 2.000000e+001 5.067838e+000 1.114161e+002
         vertex 2.000000e+001 5.000001e-001 1.035827e+002
         vertex 2.000000e+001 5.000001e-001 5.000000e-001
      endloop
   endfacet
   facet normal 1.000000e+000 0.000000e+000 0.000000e+000
      outer loop
         vertex 2.000000e+001 5.067838e+000 1.114161e+002
         vertex 2.000000e+001 5.000001e-001 5.000000e-001
         vertex 2.000000e+001 2.100000e+001 1.206145e+002
      endloop
   endfacet
   facet normal 1.000000e+000 0.000000e+000 0.000000e+000
      outer loop
         vertex 2.000000e+001 2.100000e+001 1.206145e+002
         vertex 2.000000e+001 5.000001e-001 5.000000e-001
         vertex 2.000000e+001 2.100000e+001 5.000000e-001
      endloop
   endfacet
   facet normal -6.643248e-001 -3.163467e-001 -6.771982e-001
      outer loop
         vertex 3.817514e+000 2.100000e+001 9.486954e+001
         vertex 4.012540e+000 2.100000e+001 9.467822e+001
         vertex 4.895617e+000 9.797164e+000 9.904523e+001
      endloop
   endfacet
   facet normal -6.643248e-001 -3.163467e-001 -6.771982e-001
      outer loop
         vertex 4.895617e+000 9.797164e+000 9.904523e+001
         vertex 4.012540e+000 2.100000e+001 9.467822e+001
         vertex 5.818385e+000 0.000000e+000 1.027167e+002
      endloop
   endfacet
   facet normal -6.643248e-001 -3.163467e-001 -6.771982e-001
      outer loop
         vertex 4.895617e+000 9.797164e+000 9.904523e+001
         vertex 5.818385e+000 0.000000e+000 1.027167e+002
         vertex 5.654164e+000 7.325411e-002 1.028435e+002
      endloop
   endfacet
   facet normal -1.000000e+000 0.000000e+000 0.000000e+000
      outer loop
         vertex 0.000000e+000 0.000000e+000 5.000000e-001
         vertex 0.000000e+000 0.000000e+000 9.600000e+001
         vertex 0.000000e+000 2.100000e+001 5.000000e-001
      endloop
   endfacet
   facet normal -1.000000e+000 0.000000e+000 0.000000e+000
      outer loop
         vertex 0.000000e+000 2.100000e+001 5.000000e-001
         vertex 0.000000e+000 0.000000e+000 9.600000e+001
         vertex 0.000000e+000 2.100000e+001 9.004620e+001
      endloop
   endfacet
   facet normal -7.431448e-001 1.825143e-001 6.437579e-001
      outer loop
         vertex 0.000000e+000 2.100000e+001 9.004620e+001
         vertex 0.000000e+000 0.000000e+000 9.600000e+001
         vertex 4.012540e+000 2.100000e+001 9.467822e+001
      endloop
   endfacet
   facet normal -7.431448e-001 1.825143e-001 6.437579e-001
      outer loop
         vertex 4.012540e+000 2.100000e+001 9.467822e+001
         vertex 0.000000e+000 0.000000e+000 9.600000e+001
         vertex 5.818385e+000 0.000000e+000 1.027167e+002
      endloop
   endfacet
   facet normal -1.493730e-001 3.326904e-001 9.311310e-001
      outer loop
         vertex 3.995088e+000 2.100000e+001 9.489803e+001
         vertex 3.817514e+000 2.100000e+001 9.486954e+001
         vertex 4.895617e+000 9.797164e+000 9.904523e+001
      endloop
   endfacet
   facet normal -5.361072e-016 -5.000000e-001 8.660254e-001
      outer loop
         vertex 2.409058e+000 1.362746e+001 1.163580e+002
         vertex 4.040501e+000 5.067838e+000 1.114161e+002
         vertex 6.775979e+000 1.615453e+001 1.178170e+002
      endloop
   endfacet
   facet normal -5.361072e-016 -5.000000e-001 8.660254e-001
      outer loop
         vertex 6.775979e+000 1.615453e+001 1.178170e+002
         vertex 4.040501e+000 5.067838e+000 1.114161e+002
         vertex 2.000000e+001 5.067838e+000 1.114161e+002
      endloop
   endfacet
   facet normal -5.361072e-016 -5.000000e-001 8.660254e-001
      outer loop
         vertex 6.775979e+000 1.615453e+001 1.178170e+002
         vertex 2.000000e+001 5.067838e+000 1.114161e+002
         vertex 5.911485e+000 2.100000e+001 1.206145e+002
      endloop
   endfacet
   facet normal -5.361072e-016 -5.000000e-001 8.660254e-001
      outer loop
         vertex 5.911485e+000 2.100000e+001 1.206145e+002
         vertex 2.000000e+001 5.067838e+000 1.114161e+002
         vertex 2.000000e+001 2.100000e+001 1.206145e+002
      endloop
   endfacet
   facet normal 0.000000e+000 -8.660254e-001 5.000000e-001
      outer loop
         vertex 5.818385e+000 0.000000e+000 1.027167e+002
         vertex 1.950000e+001 0.000000e+000 1.027167e+002
         vertex 5.654164e+000 7.325411e-002 1.028435e+002
      endloop
   endfacet
   facet normal 0.000000e+000 -8.660254e-001 5.000000e-001
      outer loop
         vertex 5.654164e+000 7.325411e-002 1.028435e+002
         vertex 1.950000e+001 0.000000e+000 1.027167e+002
         vertex 2.000000e+001 5.000001e-001 1.035827e+002
      endloop
   endfacet
   facet normal 0.000000e+000 -8.660254e-001 5.000000e-001
      outer loop
         vertex 5.654164e+000 7.325411e-002 1.028435e+002
         vertex 2.000000e+001 5.000001e-001 1.035827e+002
         vertex 4.038737e+000 5.045225e+000 1.114552e+002
      endloop
   endfacet
   facet normal 0.000000e+000 -8.660254e-001 5.000000e-001
      outer loop
         vertex 4.038737e+000 5.045225e+000 1.114552e+002
         vertex 2.000000e+001 5.000001e-001 1.035827e+002
         vertex 2.000000e+001 5.045225e+000 1.114552e+002
      endloop
   endfacet
   facet normal 0.000000e+000 -1.000000e+000 0.000000e+000
      outer loop
         vertex 0.000000e+000 0.000000e+000 5.000000e-001
         vertex 1.950000e+001 0.000000e+000 5.000000e-001
         vertex 0.000000e+000 0.000000e+000 9.600000e+001
      endloop
   endfacet
   facet normal 0.000000e+000 -1.000000e+000 0.000000e+000
      outer loop
         vertex 0.000000e+000 0.000000e+000 9.600000e+001
         vertex 1.950000e+001 0.000000e+000 5.000000e-001
         vertex 1.950000e+001 0.000000e+000 1.027167e+002
      endloop
   endfacet
   facet normal 0.000000e+000 -1.000000e+000 0.000000e+000
      outer loop
         vertex 0.000000e+000 0.000000e+000 9.600000e+001
         vertex 1.950000e+001 0.000000e+000 1.027167e+002
         vertex 5.818385e+000 0.000000e+000 1.027167e+002
      endloop
   endfacet
   facet normal -5.168336e-017 8.660254e-001 5.000000e-001
      outer loop
         vertex 4.040501e+000 5.067838e+000 1.114161e+002
         vertex 4.038737e+000 5.045225e+000 1.114552e+002
         vertex 2.000000e+001 5.067838e+000 1.114161e+002
      endloop
   endfacet
   facet normal -5.168336e-017 8.660254e-001 5.000000e-001
      outer loop
         vertex 2.000000e+001 5.067838e+000 1.114161e+002
         vertex 4.038737e+000 5.045225e+000 1.114552e+002
         vertex 2.000000e+001 5.045225e+000 1.114552e+002
      endloop
   endfacet
   facet normal 4.711646e-001 -8.756086e-001 1.063652e-001
      outer loop
         vertex 6.775979e+000 1.615453e+001 1.178170e+002
         vertex 2.135883e+000 1.374996e+001 1.185765e+002
         vertex 2.409058e+000 1.362746e+001 1.163580e+002
      endloop
   endfacet
   facet normal 0.000000e+000 1.000000e+000 0.000000e+000
      outer loop
         vertex 4.012540e+000 2.100000e+001 9.467822e+001
         vertex 3.817514e+000 2.100000e+001 9.486954e+001
         vertex 3.995088e+000 2.100000e+001 9.489803e+001
      endloop
   endfacet
   facet normal 0.000000e+000 1.000000e+000 0.000000e+000
      outer loop
         vertex 2.000000e+001 2.100000e+001 5.000000e-001
         vertex 0.000000e+000 2.100000e+001 5.000000e-001
         vertex 0.000000e+000 2.100000e+001 9.004620e+001
      endloop
   endfacet
   facet normal 0.000000e+000 1.000000e+000 0.000000e+000
      outer loop
         vertex 3.995088e+000 2.100000e+001 9.489803e+001
         vertex 7.494651e-001 2.100000e+001 1.228017e+002
         vertex 5.911485e+000 2.100000e+001 1.206145e+002
      endloop
   endfacet
   facet normal 0.000000e+000 1.000000e+000 0.000000e+000
      outer loop
         vertex 5.911485e+000 2.100000e+001 1.206145e+002
         vertex 2.000000e+001 2.100000e+001 1.206145e+002
         vertex 3.995088e+000 2.100000e+001 9.489803e+001
      endloop
   endfacet
   facet normal 0.000000e+000 1.000000e+000 0.000000e+000
      outer loop
         vertex 3.995088e+000 2.100000e+001 9.489803e+001
         vertex 2.000000e+001 2.100000e+001 1.206145e+002
         vertex 2.000000e+001 2.100000e+001 5.000000e-001
      endloop
   endfacet
   facet normal 0.000000e+000 1.000000e+000 0.000000e+000
      outer loop
         vertex 3.995088e+000 2.100000e+001 9.489803e+001
         vertex 2.000000e+001 2.100000e+001 5.000000e-001
         vertex 4.012540e+000 2.100000e+001 9.467822e+001
      endloop
   endfacet
   facet normal 0.000000e+000 1.000000e+000 0.000000e+000
      outer loop
         vertex 4.012540e+000 2.100000e+001 9.467822e+001
         vertex 2.000000e+001 2.100000e+001 5.000000e-001
         vertex 0.000000e+000 2.100000e+001 9.004620e+001
      endloop
   endfacet
   facet normal 0.000000e+000 0.000000e+000 1.000000e+000
      outer loop
         vertex 1.950000e+001 0.000000e+000 5.000000e-001
         vertex 2.000000e+001 0.000000e+000 5.000000e-001
         vertex 2.000000e+001 5.000001e-001 5.000000e-001
      endloop
   endfacet
   facet normal 0.000000e+000 0.000000e+000 -1.000000e+000
      outer loop
         vertex 5.000001e-001 2.050000e+001 0.000000e+000
         vertex 1.950000e+001 2.050000e+001 0.000000e+000
         vertex 5.000001e-001 5.000001e-001 0.000000e+000
      endloop
   endfacet
   facet normal 0.000000e+000 0.000000e+000 -1.000000e+000
      outer loop
         vertex 5.000001e-001 5.000001e-001 0.000000e+000
         vertex 1.950000e+001 2.050000e+001 0.000000e+000
         vertex 1.950000e+001 5.000001e-001 0.000000e+000
      endloop
   endfacet
   facet normal 7.071068e-001 0.000000e+000 -7.071068e-001
      outer loop
         vertex 1.950000e+001 2.050000e+001 0.000000e+000
         vertex 2.000000e+001 2.100000e+001 5.000000e-001
         vertex 1.950000e+001 5.000001e-001 0.000000e+000
      endloop
   endfacet
   facet normal 7.071068e-001 0.000000e+000 -7.071068e-001
      outer loop
         vertex 1.950000e+001 5.000001e-001 0.000000e+000
         vertex 2.000000e+001 2.100000e+001 5.000000e-001
         vertex 2.000000e+001 5.000001e-001 5.000000e-001
      endloop
   endfacet
   facet normal 7.071068e-001 0.000000e+000 -7.071068e-001
      outer loop
         vertex 1.950000e+001 5.000001e-001 0.000000e+000
         vertex 2.000000e+001 5.000001e-001 5.000000e-001
         vertex 2.000000e+001 0.000000e+000 5.000000e-001
      endloop
   endfacet
   facet normal 0.000000e+000 -7.071068e-001 -7.071068e-001
      outer loop
         vertex 0.000000e+000 0.000000e+000 5.000000e-001
         vertex 5.000001e-001 5.000001e-001 0.000000e+000
         vertex 1.950000e+001 0.000000e+000 5.000000e-001
      endloop
   endfacet
   facet normal 0.000000e+000 -7.071068e-001 -7.071068e-001
      outer loop
         vertex 1.950000e+001 0.000000e+000 5.000000e-001
         vertex 5.000001e-001 5.000001e-001 0.000000e+000
         vertex 1.950000e+001 5.000001e-001 0.000000e+000
      endloop
   endfacet
   facet normal 0.000000e+000 -7.071068e-001 -7.071068e-001
      outer loop
         vertex 1.950000e+001 0.000000e+000 5.000000e-001
         vertex 1.950000e+001 5.000001e-001 0.000000e+000
         vertex 2.000000e+001 0.000000e+000 5.000000e-001
      endloop
   endfacet
   facet normal 0.000000e+000 7.071068e-001 -7.071068e-001
      outer loop
         vertex 5.000001e-001 2.050000e+001 0.000000e+000
         vertex 0.000000e+000 2.100000e+001 5.000000e-001
         vertex 1.950000e+001 2.050000e+001 0.000000e+000
      endloop
   endfacet
   facet normal 0.000000e+000 7.071068e-001 -7.071068e-001
      outer loop
         vertex 1.950000e+001 2.050000e+001 0.000000e+000
         vertex 0.000000e+000 2.100000e+001 5.000000e-001
         vertex 2.000000e+001 2.100000e+001 5.000000e-001
      endloop
   endfacet
   facet normal -7.071068e-001 0.000000e+000 -7.071068e-001
      outer loop
         vertex 0.000000e+000 2.100000e+001 5.000000e-001
         vertex 5.000001e-001 2.050000e+001 0.000000e+000
         vertex 0.000000e+000 0.000000e+000 5.000000e-001
      endloop
   endfacet
   facet normal -7.071068e-001 0.000000e+000 -7.071068e-001
      outer loop
         vertex 0.000000e+000 0.000000e+000 5.000000e-001
         vertex 5.000001e-001 2.050000e+001 0.000000e+000
         vertex 5.000001e-001 5.000001e-001 0.000000e+000
      endloop
   endfacet
endsolid